<?xml version="1.0" encoding="utf-8"?>
<!-- Generator: Adobe Illustrator 24.0.3, SVG Export Plug-In . SVG Version: 6.00 Build 0)  -->
<svg version="1.1" id="Layer_1" focusable="false" xmlns="http://www.w3.org/2000/svg" xmlns:xlink="http://www.w3.org/1999/xlink"
	 x="0px" y="0px" viewBox="0 0 576 512" style="enable-background:new 0 0 576 512;" xml:space="preserve">
<path d="M512,160h-96V64c0-35.3-28.7-64-64-64H64C28.7,0,0,28.7,0,64v160c0,35.3,28.7,64,64,64h32v52c0,7.1,5.8,12,12,12
	c2.4,0,4.9-0.7,7.1-2.4l76.9-43.5V384c0,35.3,28.7,64,64,64h96l108.9,61.6c2.2,1.6,4.7,2.4,7.1,2.4c6.2,0,12-4.9,12-12v-52h32
	c35.3,0,64-28.7,64-64V224C576,188.7,547.3,160,512,160z M64,256c-17.6,0-32-14.4-32-32V64c0-17.6,14.4-32,32-32h288
	c17.6,0,32,14.4,32,32v160c0,17.6-14.4,32-32,32H215.6l-7.3,4.2L128,305.6V256H64z M544,384c0,17.6-14.4,32-32,32h-64v49.6
	l-80.2-45.4l-7.3-4.2H256c-17.6,0-32-14.4-32-32v-96h128c35.3,0,64-28.7,64-64v-32h96c17.6,0,32,14.4,32,32V384z"/>
</svg>
