<?xml version="1.0" encoding="utf-8"?>
<!-- Generator: Adobe Illustrator 24.0.3, SVG Export Plug-In . SVG Version: 6.00 Build 0)  -->
<svg version="1.1" id="Layer_1" focusable="false" xmlns="http://www.w3.org/2000/svg" xmlns:xlink="http://www.w3.org/1999/xlink"
	 x="0px" y="0px" viewBox="0 0 448 512" style="enable-background:new 0 0 448 512;" xml:space="preserve">
<path d="M224,480c-17.7,0-32-14.4-32-32h-32c0,35.3,28.7,64,64,64s64-28.7,64-64h-32C256,465.6,241.7,480,224,480z M433.4,334.8
	c-28-26.6-49.3-54.5-49.3-148.9c0-79.6-63.4-144.5-144-152.4V16c0-8.8-7.2-16-16-16s-16,7.2-16,16v17.6
	c-80.7,7.9-144,72.8-144,152.3c0,94.4-21.4,122.3-49.3,148.9C0.6,348.1-3.8,368.2,3.4,386c7.3,18.2,24.8,30,44.6,30h352
	c19.8,0,37.4-11.8,44.6-30C451.8,368.2,447.4,348.1,433.4,334.8z M400,384H48c-14.2,0-21.3-16.5-11.3-26
	C71.5,324.8,96,287.6,96,185.9C96,118.5,153.2,64,224,64c70.8,0,128,54.5,128,121.9c0,101.4,24.2,138.7,59.3,172.1
	C421.4,367.6,414.2,384,400,384z"/>
</svg>
