<?xml version="1.0" encoding="utf-8"?>
<!-- Generator: Adobe Illustrator 24.0.3, SVG Export Plug-In . SVG Version: 6.00 Build 0)  -->
<svg version="1.1" id="Layer_1" focusable="false" xmlns="http://www.w3.org/2000/svg" xmlns:xlink="http://www.w3.org/1999/xlink"
	 x="0px" y="0px" viewBox="0 0 480 448" style="enable-background:new 0 0 480 448;" xml:space="preserve">
<path d="M470.6,169.4l-160-160c-20-20-54.6-6-54.6,22.6v72.7C140.5,108.6,0,132.9,0,285.8c0,65,33.5,118.3,85.1,156
	c24.2,17.7,58-4.9,49.7-34.5c-27.7-98.2-0.4-122.1,121.2-126.4V352c0,28.6,34.6,42.6,54.6,22.6l160-160
	C483.1,202.1,483.1,181.9,470.6,169.4L470.6,169.4z M288,352V248.1C142.3,249.4,63,270.7,104,416c-31.5-23-72-65.1-72-130.2
	c0-131.4,125.8-148.3,256-149.7V32l160,160L288,352z"/>
</svg>
