<svg id="Layer_1" data-name="Layer 1" xmlns="http://www.w3.org/2000/svg" viewBox="0 0 511.61 507.69">
  <defs>
    <style>
      .cls-1, .cls-2 {
        fill: #00323f;
      }

      .cls-1 {
        opacity: 0.62;
      }
    </style>
  </defs>
  <title>dove</title>
  <path class="cls-1" d="M400,64c-76.12-1-86,81-80,139.5A271.57,271.57,0,0,1,87,41.75C13.09-7.91,13.58,283.12,117.12,342.44,235.54,410.31-5.56,375.18.48,430.84,35.23,499.46,166.88,554.36,243.17,448,577.81,468.19,421.65,241.92,512,64,512,64,400,64,400,64Zm.05,96.1c-14.71.25-14.71-22.87,0-22.62C414.69,137.3,414.69,160.29,400.05,160.1Z" transform="translate(-0.37 0.02)"/>
  <path class="cls-2" d="M320,176.69V203.5a271.54,271.54,0,0,1-174.12-76.79c0-22.52,63.43-172.61,88-112.71A271.45,271.45,0,0,0,320,176.69Z" transform="translate(-0.37 0.02)"/>
</svg>
