<?xml version="1.0" encoding="utf-8"?>
<!-- Generator: Adobe Illustrator 24.0.3, SVG Export Plug-In . SVG Version: 6.00 Build 0)  -->
<svg version="1.1" id="Layer_1" focusable="false" xmlns="http://www.w3.org/2000/svg" xmlns:xlink="http://www.w3.org/1999/xlink"
	 x="0px" y="0px" viewBox="0 0 665 472.4" style="enable-background:new 0 0 665 472.4;" xml:space="preserve">
<style type="text/css">
	.st0{fill:none;stroke:#000000;stroke-width:25;stroke-miterlimit:10;}
</style>
<g>
	<path class="st0" d="M492.5,235.9c53,0,96-43,96-96c-5.1-127.3-187-127.3-192,0C396.5,192.9,439.5,235.9,492.5,235.9z M540.5,267.9
		h-3.8c-28.2,10.5-60.2,10.5-88.4,0h-3.8c-20.4,0-39.2,5.9-55.7,15.4c24.4,26.3,39.7,61.2,39.7,99.8v38.4c0,2.2-0.5,4.3-0.6,6.4
		h176.6c26.5,0,48-21.5,48-48c0-61.8-50.1-112-111.9-112C540.6,267.9,540.5,267.9,540.5,267.9z"/>
	<path class="st0" d="M204.5,235.9c61.9,0,112-50.1,112-112c-5.9-148.6-218.1-148.5-224,0c0,61.8,50.1,112,111.9,112
		C204.4,235.9,204.5,235.9,204.5,235.9z M281.3,267.9H273c-21.3,10.4-44.8,15.9-68.5,16c-24.6,0-47.6-6-68.5-16h-8.3
		c-63.6,0-115.2,51.6-115.2,115.2v28.8c0,26.5,21.5,48,48,48h288c26.5,0,48-21.5,48-48v-28.8C396.5,319.5,344.9,267.9,281.3,267.9z"
		/>
</g>
</svg>
